<?xml version="1.0" standalone="no"?>
<!DOCTYPE svg PUBLIC "-//W3C//DTD SVG 20010904//EN"
 "http://www.w3.org/TR/2001/REC-SVG-20010904/DTD/svg10.dtd">
<svg version="1.0" xmlns="http://www.w3.org/2000/svg"
 width="500.000000pt" height="500.000000pt" viewBox="0 0 500.000000 500.000000"
 preserveAspectRatio="xMidYMid meet">
<metadata>
Created by potrace 1.11, written by Peter Selinger 2001-2013
</metadata>
<g transform="translate(0.000000,500.000000) scale(0.100000,-0.100000)"
fill="#000000" stroke="none">
<path d="M0 2500 l0 -2500 2500 0 2500 0 0 1210 0 1210 -67 1 c-69 0 -81 1
-258 20 -55 6 -122 13 -150 15 -27 3 -85 12 -128 20 -42 9 -90 17 -105 20 -15
2 -61 11 -102 20 -133 26 -177 35 -206 40 -15 3 -30 7 -34 9 -4 2 -29 7 -56
10 -27 3 -65 11 -84 18 -19 6 -38 11 -41 12 -12 1 -145 89 -167 111 -12 13
-21 29 -20 36 2 7 -2 12 -9 11 -7 -2 -17 6 -23 17 -6 12 -7 20 -1 20 5 0 7 8
4 19 -8 30 25 80 102 157 102 100 189 127 335 105 147 -23 290 -77 685 -256
157 -71 309 -135 320 -135 3 0 5 520 5 1155 l0 1155 -2500 0 -2500 0 0 -2500z
m4754 2109 c18 -21 26 -42 26 -67 0 -34 -9 -45 -104 -137 l-104 -100 0 -62
c-2 -249 -208 -433 -486 -433 l-79 0 -48 -45 -48 -45 85 0 c78 0 87 -2 111
-26 53 -53 77 -26 -737 -834 l-751 -745 1 -492 c0 -468 1 -494 20 -538 17 -39
28 -50 73 -70 63 -29 160 -45 282 -45 178 0 363 -33 456 -81 175 -89 229 -316
97 -411 -33 -23 -37 -23 -408 -31 -206 -4 -661 -5 -1010 -2 -627 6 -635 7
-675 28 -89 49 -113 190 -49 293 82 134 235 188 578 204 201 9 305 30 338 67
47 53 48 63 42 591 l-5 497 -717 717 c-394 394 -718 715 -721 713 -2 -3 3 -13
12 -23 10 -10 17 -29 17 -41 0 -21 -3 -23 -36 -16 -20 3 -44 10 -53 14 -148
72 -181 100 -230 195 -73 138 -17 315 122 384 139 69 376 44 712 -75 187 -67
374 -120 550 -158 167 -35 336 -86 342 -102 4 -11 116 -13 629 -13 l624 0 125
112 c112 102 124 115 117 138 -4 14 -7 72 -6 130 0 84 5 117 23 162 75 193
226 295 421 286 70 -3 95 -9 134 -31 l49 -27 71 63 c87 78 101 86 148 87 28 0
42 -7 62 -31z"/>
<path d="M4048 4204 c-54 -29 -74 -109 -42 -164 47 -79 178 -80 219 0 19 38
19 100 -1 128 -34 49 -120 67 -176 36z"/>
</g>
</svg>
